# xmcd
#
# Track frame offsets: 
#        150
#        13685
#        27257
#        39535
#        52925
#        64965
#        78503
#        89876
#        102508
#        115187
#        128207
#        141414
#        153389
#        168240
#        180531
#        193627
#        206351
#        219093
#        232593
#        246200
#        258964
#        272594
#        285585
#        299361
#        311984
#
# Disc length: 4337 seconds
#
# Revision: 1
# Processed by: cddbd v1.5.2PL0 Copyright (c) Steve Scherf et al.
# Submitted via: ExactAudioCopyFreeDBPlugin 1.0
#
DISCID=6810ef19
DTITLE=Big Bill Broonzy - All The Sides [JSP Records]
DYEAR=2007
DGENRE=Blues
TTITLE0=Medicine Man Blues
TTITLE1=Looking Up at Down
TTITLE2=Midnight Steppers
TTITLE3=Lone Wolf Blues
TTITLE4=Hit the Right Lick
TTITLE5=You Better Cut That Out
TTITLE6=I Wonder What's Wrong with Me
TTITLE7=Bed Time Blues
TTITLE8=Merry Go Round Blues
TTITLE9=Serenade Blues
TTITLE10=Lonesome Road Blues
TTITLE11=Getting Older Every Day (take 1)
TTITLE12=Getting Older Every Day (take 2)
TTITLE13=That Number of Mine
TTITLE14=My Gal is Gone
TTITLE15=I'll Never Dream Again
TTITLE16=Rockin' Chair Blues
TTITLE17=Shine On, Shine On
TTITLE18=Green Grass Blues
TTITLE19=My Little Flower
TTITLE20=Sweet Honey Bee
TTITLE21=When I Been Drinking
TTITLE22=Key to the Highway
TTITLE23=Double Trouble
TTITLE24=Going Back to My Plow
EXTD=
EXTT0=
EXTT1=
EXTT2=
EXTT3=
EXTT4=
EXTT5=
EXTT6=
EXTT7=
EXTT8=
EXTT9=
EXTT10=
EXTT11=
EXTT12=
EXTT13=
EXTT14=
EXTT15=
EXTT16=
EXTT17=
EXTT18=
EXTT19=
EXTT20=
EXTT21=
EXTT22=
EXTT23=
EXTT24=
PLAYORDER=
